<svg t="1764849602636" class="icon" viewBox="0 0 1024 1024" version="1.1" xmlns="http://www.w3.org/2000/svg" p-id="1623" width="256" height="256"><path d="M10.432 394.816l124.352 124.48-7.232 7.488a472 472 0 0 0-20.576 22.496 423.968 423.968 0 0 0-77.312 130.688 37.12 37.12 0 0 0 22.208 47.84c19.36 7.04 40.768-2.88 47.872-22.208a350.624 350.624 0 0 1 63.936-107.712 425.824 425.824 0 0 1 153.312-111.648 498.816 498.816 0 0 1 197.824-40.48c68.64 0 136.96 13.984 197.696 40.544a428.288 428.288 0 0 1 153.312 111.584 351.936 351.936 0 0 1 63.936 107.776 37.312 37.312 0 1 0 70.144-25.664 426.88 426.88 0 0 0-77.312-130.688c-9.824-11.36-20.16-22.208-30.944-32.576l121.728-121.888a37.376 37.376 0 0 0-26.528-63.488l-0.064-0.064h-0.192a36.8 36.8 0 0 0-26.112 10.752l-126.688 126.912a494.656 494.656 0 0 0-74.816-43.52l-9.536-4.448 79.616-170.752a37.376 37.376 0 0 0-18.272-49.216 37.12 37.12 0 0 0-49.344 17.728l-82.144 176.096-8.672-2.4a576.384 576.384 0 0 0-115.68-19.776l-9.888-0.608V216.608a37.088 37.088 0 0 0-37.344-36.8v-0.064a37.12 37.12 0 0 0-37.088 36.896v156.256l-9.664 0.832c-34.24 3.2-68.16 9.408-101.312 18.592l-8.672 2.4-82.048-175.872a36.8 36.8 0 0 0-33.472-21.312A37.44 37.44 0 0 0 201.28 250.4l79.488 170.368-9.472 4.448c-25.152 11.872-49.152 25.76-71.584 41.12l-7.232 4.96-129.376-129.312a36.672 36.672 0 0 0-25.92-10.72h-0.192a37.568 37.568 0 0 0-26.56 63.552z" p-id="1624" fill="#000000"></path><path d="M512 742.976m-101.248 0a101.248 101.248 0 1 0 202.496 0 101.248 101.248 0 1 0-202.496 0Z" p-id="1625" fill="#000000"></path></svg>